<svg xmlns="http://www.w3.org/2000/svg" xmlns:xlink="http://www.w3.org/1999/xlink" id="Layer_1" x="0px" y="0px" viewBox="0 0 168.6 46.5" style="enable-background:new 0 0 168.6 46.5;" xml:space="preserve"><style type="text/css">	.st0{fill:#1383BE;}	.st1{fill:#F6A745;}</style><g id="a"></g><g id="b">	<g id="c">		<g id="d" transform="translate(-569.702 130.347)">			<g id="e">				<path id="f" class="st0" d="M590.6-96.1c-0.4-0.8-1.3-2.1-2.4-3.8c-3.2-5-8-12.5-9.8-17.9c-0.5-1.6-0.8-3.3-1.1-4.9     c-4.8,3.7-7.7,9.4-7.7,15.4c0,10.7,8.7,19.4,19.4,19.4c0.9,0,1.8-0.1,2.7-0.2c0.2,0,0.4-0.1,0.6-0.2c0.1-0.1,0.3-0.1,0.4-0.2     c0.3-0.3,0.5-0.8,0.6-1.2c0.2-1.2-0.9-3.3-1.9-4.9C591.1-95.2,590.9-95.7,590.6-96.1"></path>				<path id="g" class="st0" d="M608.4-107.4c0-0.6,0-1.2-0.1-1.8c0-0.1,0-0.2,0-0.4c0-0.3-0.1-0.6-0.1-0.9     c-1.1-6.2-5.2-11.5-10.9-14.2c-1.8-0.7-3.7-1.3-5.5-1.7c-0.8-0.1-1.7-0.2-2.5-0.2c-0.5,0-1.1,0.1-1.6,0.2     c-0.1,0.3-0.2,0.6-0.2,0.6c-0.1,0.1-0.2,0.5,0.1,2c1.4,5.9,6.4,13.5,10.5,19.7l0.6,0.9c1.9,2.9,3.4,5.9,4.5,9.2     C606.5-97.6,608.4-102.4,608.4-107.4"></path>				<path id="h" class="st1" d="M596.7-102l-0.6-0.9c-4.1-6.3-9.2-14.1-10.8-20.3c-0.3-1.3-0.5-2.8,0.3-3.8c0.7-0.9,1.9-1.2,3.9-1.2     c0.9,0,1.7,0.1,2.6,0.3c-2.2-1.3-4.7-2.1-7.3-2.2c-0.5,0-1,0.1-1.5,0.2c-1.4,0.3-2.5,1.1-3.2,2.3c-1.1,2-0.9,5.1,0.5,9.3     c1.7,5.2,6.4,12.5,9.5,17.4c1.1,1.8,2,3.1,2.4,4c0.2,0.4,0.5,0.9,0.8,1.4c1.3,2.2,2.8,4.6,2.1,6.7c-0.4,1.1-1.3,1.9-2.4,2.2     c-1.2,0.4-2.6,0.7-3.9,0.6c-0.5,0-1,0-1.5-0.1c3.7,1.1,8,1,10.4-0.1c2.5-1,3.9-3.7,3.2-6.3C600.7-95.2,599.2-98.3,596.7-102"></path>			</g>			<path id="i" class="st0" d="M685.5-123.5l-6.7,31.9h-7.2l6.7-31.9C678.3-123.5,685.5-123.5,685.5-123.5z"></path>			<path id="j" class="st0" d="M692.7-116l-5,24.4h-7.2l5-24.4C685.5-116,692.7-116,692.7-116z M694.2-123.5l-1.1,5.8h-7.2l1.1-5.8    H694.2z"></path>			<g id="k">				<path id="l" class="st0" d="M701.3-116l-0.6,3c0,0,2.9-3.4,6.9-3.4c0.8,0,1.6,0.1,2.3,0.3c0.7,0.2,1.2,0.6,1.7,1.1     c0.5,0.6,0.8,1.3,0.9,2c0,1.2-0.1,2.5-0.4,3.7l-3.7,17.7h-7.3l3.4-16.1c0.2-1.5,0.7-3.2-1.5-3.2c-1.3,0-2.6,1.3-3.1,3.2     l-3.4,16.1h-7.3l5.1-24.4L701.3-116L701.3-116z"></path>				<path id="m" class="st0" d="M725.9-111c-0.2-0.6-0.8-1-1.8-1c-0.9-0.1-1.7,0.3-2.3,1c-0.6,0.9-1.1,1.9-1.3,3l-0.3,1.2h5.2     l0.3-1.2C726.1-109,726.1-110,725.9-111 M718.7-99.3c-0.4,1.9,0,3.8,1.7,3.7c2.4-0.1,3.4-3,3.8-4.5h6.8     c-0.5,2.5-1.8,4.8-3.7,6.6c-1.7,1.5-4.2,2.3-7.5,2.3c-1.6,0-3.1-0.2-4.6-0.7c-1.1-0.4-2-1.1-2.6-2.2c-0.6-1.2-0.9-2.6-0.8-3.9     c0.1-2,0.3-4,0.8-5.9c0.4-2,1-4,1.8-5.9c0.6-1.5,1.5-2.8,2.6-4c1-1,2.2-1.8,3.6-2.2c1.5-0.5,3.1-0.7,4.7-0.7     c1.4,0,2.7,0.2,4,0.6c1,0.3,1.9,1,2.5,2c0.6,1.1,1,2.3,1,3.6c0,1.9-0.2,3.7-0.6,5.6l-0.5,2.3h-12.2L718.7-99.3L718.7-99.3z"></path>				<path id="n" class="st0" d="M628.4-114.9h7.2c0,0,1.2-3.7-0.1-5.9c-1.2-2-3.5-3.5-8.1-3.5s-8.6,1.8-10.6,5.5     c-1.8,3.1-2.4,7.3-1.5,9.2c0.9,1.9,2.1,3.2,5.8,4.8c3.7,1.6,5.8,3,4.4,6.1c-1.4,3.2-4.2,3.1-5.5,2.4c-2-1.1-0.6-4.9-0.6-4.9H612     c-0.4,1.6-0.6,3.2-0.6,4.8c0.3,2.6,2.2,4.6,4.7,5.2c3.3,0.9,10.1,0.4,13.3-2.3c3-2.6,4.6-6.5,4.3-10.5c-0.1-4.4-5.5-6.1-7.2-6.9     c-1.7-0.8-4.1-1.8-3.7-4.3c0.4-2.4,2-4.1,4.1-3.9C629.8-119.1,628.4-114.9,628.4-114.9"></path>				<path id="o" class="st0" d="M735.2-115.1h0.6c0.1,0,0.2,0,0.3-0.1c0.1,0,0.2-0.1,0.2-0.2c0.1-0.1,0.1-0.2,0.1-0.3     c0-0.1,0-0.3-0.1-0.4c-0.1-0.1-0.2-0.2-0.3-0.1h-0.7L735.2-115.1L735.2-115.1z M734.7-113.3l0.5-3.1h1c0.2,0,0.3,0,0.4,0.1     c0.1,0.1,0.2,0.2,0.2,0.3c0,0.2,0,0.3,0,0.5c0,0.2-0.1,0.4-0.2,0.6c-0.1,0.2-0.3,0.2-0.5,0.3c0.1,0.1,0.1,0.1,0.2,0.2     c0.1,0.1,0.1,0.3,0.2,0.4l0.2,0.8h-0.4l-0.2-0.6c0-0.2-0.1-0.4-0.2-0.5c0-0.1-0.1-0.1-0.1-0.2c-0.1,0-0.1-0.1-0.2,0h-0.3     l-0.2,1.4L734.7-113.3L734.7-113.3z"></path>				<path id="p" class="st0" d="M735.7-117.2c-1.2,0-2.2,1-2.2,2.2s1,2.2,2.2,2.2s2.2-1,2.2-2.2S737-117.2,735.7-117.2 M735.7-112.4     c-1.4,0-2.5-1.1-2.5-2.5s1.1-2.5,2.5-2.5s2.5,1.1,2.5,2.5S737.1-112.4,735.7-112.4"></path>				<path id="q" class="st0" d="M668.8-116l-6.7,17.1l0.6-17.1h-11.5l-7.6,8.8l3.5-16.3h-7.4l-6.3,31.9h7l1.4-6.8l2.5-2.6l2.6,9.3     h7.9l-5-14.5l6-6.5l1,19.7c0,0.3,0,0.7,0,1c0,0.3,0,0.5,0,0.7c-0.2,0.8-0.6,1.5-1.2,2c-1.4,0.9-3.5,0.4-3.8,0.3l-1.1,5     c0.6,0.1,1.3,0.1,1.9,0.1c0.7,0,1.9,0.1,2.7,0c1.7,0,3.3-0.5,4.6-1.4c1.2-0.9,2.5-2.5,4.1-5.7l11.7-25L668.8-116L668.8-116z"></path>			</g>		</g>	</g></g></svg>